HIERARCHY
ROOT Hips
{
	OFFSET -3.958830 18.904000 13.208200
	CHANNELS 6 Xposition Yposition Zposition Zrotation Yrotation Xrotation 
	JOINT LHipJoint
	{
		OFFSET 0.000000 0.000000 0.000000
		CHANNELS 3 Zrotation Yrotation Xrotation
		JOINT LeftUpLeg
		{
			OFFSET 1.800000 -1.400000 0.085000
			CHANNELS 3 Zrotation Yrotation Xrotation
			JOINT LeftLeg
			{
				OFFSET 2.215000 -6.000000 0.000000
				CHANNELS 3 Zrotation Yrotation Xrotation
				JOINT LeftFoot
				{
					OFFSET 2.500000 -6.900000 0.000000
					CHANNELS 3 Zrotation Yrotation Xrotation
					JOINT LeftToeBase
					{
						OFFSET 0.200000 -0.500000 1.950000
						CHANNELS 3 Zrotation Yrotation Xrotation
						End Site
						{
							OFFSET 0.000000 0.000000 0.000000
						}
					}
				}
			}
		}
	}
	JOINT RHipJoint
	{
		OFFSET 0.000000 0.000000 0.000000
		CHANNELS 3 Zrotation Yrotation Xrotation
		JOINT RightUpLeg
		{
			OFFSET -1.800000 -1.400000 0.085000
			CHANNELS 3 Zrotation Yrotation Xrotation
			JOINT RightLeg
			{
				OFFSET -2.215000 -6.000000 0.000000
				CHANNELS 3 Zrotation Yrotation Xrotation
				JOINT RightFoot
				{
					OFFSET -2.500000 -6.900000 0.000000
					CHANNELS 3 Zrotation Yrotation Xrotation
					JOINT RightToeBase
					{
						OFFSET -0.200000 -0.500000 1.950000
						CHANNELS 3 Zrotation Yrotation Xrotation
						End Site
						{
							OFFSET 0.000000 0.000000 0.000000
						}
					}
				}
			}
		}
	}
	JOINT LowerBack
	{
		OFFSET 0.000000 0.000000 0.000000
		CHANNELS 3 Zrotation Yrotation Xrotation
		JOINT Spine
		{
			OFFSET -0.087000 1.940000 -0.288900
			CHANNELS 3 Zrotation Yrotation Xrotation
			JOINT Spine1
			{
				OFFSET 0.000000 1.950000 0.060000
				CHANNELS 3 Zrotation Yrotation Xrotation
				JOINT Neck
				{
					OFFSET 0.000000 0.000000 0.000000
					CHANNELS 3 Zrotation Yrotation Xrotation
					JOINT Neck1
					{
						OFFSET 0.000000 1.600000 0.340000
						CHANNELS 3 Zrotation Yrotation Xrotation
						JOINT Head
						{
							OFFSET 0.000000 1.667000 -0.240000
							CHANNELS 3 Zrotation Yrotation Xrotation
							End Site
							{
								OFFSET 0.000000 0.000000 0.000000
							}
						}
					}
				}
				JOINT LeftShoulder
				{
					OFFSET 0.000000 0.000000 0.000000
					CHANNELS 3 Zrotation Yrotation Xrotation
					JOINT LeftArm
					{
						OFFSET 2.700000 1.550000 -0.730000
						CHANNELS 3 Zrotation Yrotation Xrotation
						JOINT LeftForeArm
						{
							OFFSET 5.450000 0.000000 0.000000
							CHANNELS 3 Zrotation Yrotation Xrotation
							JOINT LeftHand
							{
								OFFSET 3.450000 0.000000 0.000000
								CHANNELS 3 Zrotation Yrotation Xrotation
								JOINT LeftHandIndex1
								{
									OFFSET 0.750000 0.000000 0.000000
									CHANNELS 3 Zrotation Yrotation Xrotation
									End Site
									{
										OFFSET 0.000000 0.000000 0.000000
									}
								}
							}
						}
					}
				}
				JOINT RightShoulder
				{
					OFFSET 0.000000 0.000000 0.000000
					CHANNELS 3 Zrotation Yrotation Xrotation
					JOINT RightArm
					{
						OFFSET -2.700000 1.550000 -0.730000
						CHANNELS 3 Zrotation Yrotation Xrotation
						JOINT RightForeArm
						{
							OFFSET -5.450000 0.000000 0.000000
							CHANNELS 3 Zrotation Yrotation Xrotation
							JOINT RightHand
							{
								OFFSET -3.450000 0.000000 0.000000
								CHANNELS 3 Zrotation Yrotation Xrotation
								JOINT RightHandIndex1
								{
									OFFSET -0.750000 0.000000 0.000000
									CHANNELS 3 Zrotation Yrotation Xrotation
									End Site
									{
										OFFSET 0.000000 0.000000 0.000000
									}
								}
							}
						}
					}
				}
			}
		}
	}
}
MOTION
Frames: 8
Frame Time: 0.016667
-0.482230 15.524250 -3.037820 -0.761930 25.392128 -5.558031 -15.564929 11.426094 5.576534 23.198161 -4.030191 -29.922921 -33.713308 21.933700 32.256578 1.095675 10.952111 0.762686 0.229240 0.046480 0.123950 18.083785 -11.000502 0.861940 -16.674234 -0.747842 -3.518722 -1.245728 -6.782735 30.407571 -0.347889 -5.554669 2.476086 0.171160 0.227820 0.124740 -3.045278 -0.545721 -7.887475 0.768881 3.520601 10.062496 -0.954007 4.141112 4.288492 1.364143 3.281470 -5.717862 3.390717 -6.489149 33.685825 0.460350 -5.908460 -3.101570 -28.813141 -6.972854 -0.019983 -25.769029 -8.110555 -3.478679 -3.221205 -31.326676 0.825121 -3.824198 3.116100 0.110060 0.182650 -0.149180 0.132640 26.580217 6.294094 4.870652 40.143309 0.289585 -6.829300 30.332396 39.662252 7.091368 2.177925 -1.724737 -0.138510 0.143000 0.004770 -0.089780 
-0.499490 15.497130 -3.049900 -0.463254 24.735436 -5.829559 -15.630742 11.290303 5.878346 25.416383 -3.870967 -30.493399 -36.356270 23.438170 32.587898 1.226932 11.399567 0.620486 0.241160 0.056020 0.145540 18.053709 -10.861253 0.788743 -17.229163 -0.768093 -3.863723 -0.726865 -7.183391 31.343444 -0.378890 -5.628511 2.438532 0.165150 0.190810 0.111200 -2.868486 -0.679144 -8.079783 -0.022854 3.837298 11.048962 -0.541721 4.554891 3.679337 1.389615 3.339401 -5.948579 3.169753 -6.444298 35.090602 1.064120 -5.978150 -3.783400 -29.621528 -7.570342 -0.094094 -26.667326 -8.847071 -3.440492 -4.964375 -31.168117 1.191930 -3.788232 3.090870 0.151450 0.143810 -0.116840 0.124770 27.399103 6.966539 5.309167 39.376781 -1.020386 -7.159831 28.311492 36.768987 5.815976 2.184209 -1.667194 -0.137360 0.147320 -0.004420 -0.101800 
-0.521870 15.435620 -3.060190 -0.036639 23.942923 -6.224311 -15.753556 11.129136 6.307477 28.883899 -3.578413 -31.227996 -39.866213 25.773061 33.379983 1.418571 12.016270 0.433480 0.248170 0.057120 0.165630 17.988137 -10.672319 0.659794 -17.976104 -0.852197 -4.435685 -0.698332 -7.541788 32.922864 -0.419446 -5.738096 2.382598 0.147480 0.146660 0.103730 -2.543017 -0.903324 -8.319696 -1.692317 4.529828 12.389243 0.661206 5.305499 2.545230 1.428016 3.669186 -6.311937 3.243394 -6.838489 36.910333 1.864470 -6.416120 -4.393860 -31.249112 -8.389257 -0.157362 -28.609624 -9.492938 -3.500455 -8.620348 -31.955711 2.055546 -3.740843 3.087442 0.198410 0.098440 -0.076680 0.112860 29.150461 7.845859 6.049363 37.932959 -3.610106 -7.329876 25.000809 31.086631 3.819564 2.191915 -1.586680 -0.128930 0.143190 -0.010930 -0.112760 
-0.545060 15.384250 -3.064760 0.245686 22.767267 -6.806558 -15.863928 11.037788 6.639875 32.289244 -3.176811 -31.364753 -42.244226 27.819131 34.271988 1.590784 12.452765 0.306045 0.253870 0.063470 0.175890 17.928513 -10.539277 0.542528 -18.416209 -1.020066 -5.001432 -1.270110 -7.676459 34.651805 -0.459234 -5.854518 2.331002 0.124310 0.106050 0.100830 -2.261892 -1.102592 -8.503839 -3.066308 5.117528 13.248284 1.793533 5.911646 1.610153 1.475580 3.788388 -6.711421 2.899067 -6.586400 39.777215 2.568050 -6.366800 -3.708230 -32.862264 -8.949456 -0.194491 -31.338134 -10.113140 -3.456406 -12.004061 -32.151172 2.843854 -3.697364 3.109340 0.217990 0.063370 -0.043620 0.108350 30.922412 8.562750 6.719907 37.108325 -5.696919 -6.621657 19.776748 23.251359 1.693566 2.234825 -1.488564 -0.103650 0.116930 -0.026960 -0.111980 
-0.548420 15.348240 -3.076100 0.584412 21.341659 -7.454605 -15.951817 11.057252 6.815743 34.875074 -2.864718 -30.332807 -44.113186 28.860760 33.993247 1.660965 12.613467 0.249767 0.253340 0.058670 0.186820 17.861679 -10.465261 0.460500 -18.962614 -1.318963 -5.187539 -1.947631 -7.532870 34.850942 -0.469983 -5.793699 2.343701 0.105730 0.072790 0.091310 -2.022217 -1.324955 -8.610218 -4.158262 5.548716 13.852110 2.737440 6.405012 1.065573 1.609353 3.686413 -7.122207 2.163519 -6.247553 42.682642 3.306790 -6.401080 -3.600220 -34.388179 -9.236466 -0.261326 -34.616356 -10.747790 -3.303127 -15.231382 -33.203513 3.717763 -3.655603 3.107372 0.258520 0.026630 -0.011250 0.097310 32.420926 9.069704 7.489958 36.012045 -7.969445 -5.880008 15.872000 17.688507 0.678573 2.267780 -1.389165 -0.099490 0.114620 -0.028300 -0.120760 
-0.555860 15.329590 -3.081990 0.550256 19.957083 -8.296294 -16.029198 11.202546 6.848027 36.911506 -2.566442 -28.267291 -44.351834 28.472190 32.803981 1.615771 12.516044 0.246312 0.258780 0.051660 0.212530 17.782936 -10.457368 0.402670 -18.686631 -1.606661 -5.342204 -3.473529 -7.008959 35.446697 -0.488933 -5.731617 2.356022 0.093380 0.039860 0.091420 -1.795348 -1.568266 -8.632689 -5.177137 5.801573 14.333144 3.675307 6.738773 0.755533 1.887684 3.932952 -7.555081 2.215775 -5.996866 45.535001 3.780250 -6.130530 -3.509420 -36.218648 -9.735397 -0.179318 -37.026780 -11.235334 -3.029777 -18.046026 -34.126832 4.558248 -3.622037 3.114063 0.302910 -0.002260 0.019930 0.081320 33.977221 9.496945 8.160607 34.306472 -9.594056 -4.577189 12.184253 11.660595 0.053180 2.316058 -1.288222 -0.100370 0.109470 -0.026890 -0.139690 
-0.534740 15.326150 -3.073130 0.236293 18.181634 -8.862041 -16.055673 11.364190 6.711052 38.207828 -2.192019 -25.251985 -43.398134 27.116998 30.788647 1.539884 12.232159 0.309383 0.252980 0.052140 0.205370 17.745494 -10.489581 0.388596 -18.420259 -1.936558 -5.549307 -4.353424 -6.588557 35.025199 -0.475256 -5.605312 2.402116 0.085240 0.038370 0.089700 -1.709325 -1.694409 -8.565761 -5.113807 5.640608 13.689421 4.058360 6.698937 1.567250 2.090004 3.809540 -7.864420 1.767923 -5.548507 47.237108 4.153860 -5.947570 -2.824000 -36.701576 -9.929038 0.014579 -40.099740 -12.440750 -2.374025 -20.335397 -36.308196 5.589160 -3.613483 3.126240 0.303090 -0.006520 0.027910 0.081010 34.153138 9.655226 8.591492 33.480371 -10.196780 -3.398188 8.641221 6.739432 -0.182818 2.396763 -1.216828 -0.093490 0.106920 -0.026970 -0.133370 
-0.495570 15.334490 -3.073300 -0.430414 16.624980 -9.416575 -16.056834 11.544552 6.528310 39.008082 -2.008719 -21.866254 -42.125173 25.120569 27.985320 1.418423 11.833220 0.399594 0.265120 0.068260 0.218900 17.723644 -10.533358 0.395296 -17.819244 -2.337234 -5.767356 -5.122735 -6.252602 34.706125 -0.476835 -5.499072 2.439039 0.088620 0.020960 0.093580 -1.683730 -1.812530 -8.481255 -4.403851 5.329218 13.218418 4.138730 6.567259 2.946568 2.461690 4.274484 -8.377605 2.562431 -5.618864 47.954365 4.440260 -5.553610 -2.883250 -36.806513 -10.874867 0.514074 -42.815797 -14.553275 -0.789339 -25.252232 -39.851892 8.108874 -3.605223 3.165357 0.314350 -0.013670 0.044290 0.078460 33.487748 9.942288 9.201153 33.097284 -11.166856 -2.739429 5.397221 3.779336 -0.139094 2.454658 -1.189111 -0.086050 0.097750 -0.034930 -0.140060 
